<?xml version="1.0" encoding="UTF-8"?>
<!DOCTYPE svg PUBLIC "-//W3C//DTD SVG 1.1//EN" "http://www.w3.org/Graphics/SVG/1.1/DTD/svg11.dtd">
<!-- Creator: CorelDRAW 2018 (64 Bit) -->
<svg xmlns="http://www.w3.org/2000/svg" xml:space="preserve" width="28.1525mm" height="28.1526mm" version="1.1" style="shape-rendering:geometricPrecision; text-rendering:geometricPrecision; image-rendering:optimizeQuality; fill-rule:evenodd; clip-rule:evenodd"
viewBox="0 0 805.27 805.28"
 xmlns:xlink="http://www.w3.org/1999/xlink">
 <defs>
  <style type="text/css">
   <![CDATA[
    .fil1 {fill:#FF6600}
    .fil0 {fill:white}
   ]]>
  </style>
 </defs>
 <g id="Capa_x0020_1">
  <metadata id="CorelCorpID_0Corel-Layer"/>
  <path class="fil0" d="M115.05 0l575.17 0c63.27,0 115.05,51.78 115.05,115.05l0 575.17c0,63.27 -51.78,115.05 -115.05,115.05l-575.17 0c-63.27,0 -115.05,-51.78 -115.05,-115.05l0 -575.17c0,-63.27 51.78,-115.05 115.05,-115.05z"/>
  <g id="phone-incoming-svgrepo-com.svg">
   <path class="fil1" d="M678.05 178.84c9.54,-9.54 9.54,-24.98 0,-34.52l-17.26 -17.26c-9.54,-9.54 -24.98,-9.54 -34.49,0l-103.51 103.51 -43.12 -43.12c-6.98,-6.98 -17.48,-9.07 -26.58,-5.28 -9.12,3.76 -15.06,12.67 -15.06,22.54l0 138.03c0,13.47 10.94,24.41 24.41,24.41l138.03 0c9.87,0 18.77,-5.94 22.54,-15.06 3.76,-9.12 1.7,-19.63 -5.28,-26.6l-43.12 -43.12 103.51 -103.51 0 0 -0.05 -0z"/>
   <path class="fil1" d="M158.78 220.65c-2.47,-34.88 27.07,-62 61.95,-62l74.68 0c17.92,0 34.05,10.78 40.95,27.35l31.22 75.12c7.61,18.3 2.2,39.44 -13.25,51.81l-19.46 15.61c-8.68,6.98 -11.65,18.96 -6.49,28.83 26.47,50.74 65.61,93.8 113.18,124.97 10.03,6.57 23.31,3.96 30.81,-5.41l20.28 -25.39c12.37,-15.47 33.45,-20.89 51.7,-13.28l74.95 31.3c16.54,6.9 27.29,23.09 27.29,41.04l0 25.92 -1.02 0 0 47.91c0,34.96 -27.07,64.56 -61.87,62.06 -222.54,-15.83 -409.16,-202.31 -424.94,-425.82l0 0 0 -0.01z"/>
  </g>
 </g>
</svg>
