<?xml version="1.0" encoding="UTF-8"?>
<!DOCTYPE svg PUBLIC "-//W3C//DTD SVG 1.1//EN" "http://www.w3.org/Graphics/SVG/1.1/DTD/svg11.dtd">
<!-- Creator: CorelDRAW 2018 (64 Bit) -->
<svg xmlns="http://www.w3.org/2000/svg" xml:space="preserve" width="28.1506mm" height="28.1506mm" version="1.1" style="shape-rendering:geometricPrecision; text-rendering:geometricPrecision; image-rendering:optimizeQuality; fill-rule:evenodd; clip-rule:evenodd"
viewBox="0 0 9696.98 9696.98"
 xmlns:xlink="http://www.w3.org/1999/xlink">
 <defs>
  <style type="text/css">
   <![CDATA[
    .fil1 {fill:#FF6600}
    .fil0 {fill:white}
   ]]>
  </style>
 </defs>
 <g id="Capa_x0020_1">
  <metadata id="CorelCorpID_0Corel-Layer"/>
  <path class="fil0" d="M1385.24 0l6926.49 0c761.83,0 1385.24,623.42 1385.24,1385.24l0 6926.49c0,761.83 -623.42,1385.24 -1385.24,1385.24l-6926.49 0c-761.83,0 -1385.24,-623.42 -1385.24,-1385.24l0 -6926.49c0,-761.83 623.42,-1385.24 1385.24,-1385.24z"/>
  <path id="whatsapp-whats-app-svgrepo-com.svg" class="fil1" d="M4848.69 1385.21c-1796.61,0 -3246.88,1450.28 -3246.88,3246.88 0,735.99 238.2,1428.61 692.62,1991.44l-454.42 1385.24c-21.67,86.43 0,173.16 65.04,238.2 21.67,43.37 86.74,65.04 129.8,65.04 21.67,0 65.04,0 86.74,-21.67l1493.65 -670.92c389.66,173.16 800.72,259.56 1233.78,259.56 1796.61,0 3246.88,-1450.28 3246.88,-3246.88 0,-1796.61 -1450.28,-3246.88 -3246.88,-3246.88l-0.31 0zm1883 4437.33c-86.43,259.9 -411.36,476.09 -692.62,519.46 -65.04,21.67 -129.8,21.67 -216.53,21.67 -173.16,0 -433.03,-43.37 -887.45,-238.2 -519.46,-216.53 -1038.91,-670.92 -1450.28,-1255.45l0 -21.67c-129.8,-194.83 -367.99,-562.83 -367.99,-952.52 0,-476.09 238.2,-714.25 324.63,-822.42 108.09,-108.09 259.9,-173.16 433.03,-173.16 43.37,0 65.04,0 108.09,0 151.46,0 259.56,43.37 367.99,259.56l86.74 173.16c65.04,173.16 151.46,367.99 173.16,389.66 65.04,129.8 65.04,238.2 0,346.29 -21.67,65.04 -65.04,108.09 -108.09,151.46 -21.67,43.37 -43.37,65.04 -65.04,65.04 -21.67,21.67 -21.67,21.67 -43.37,43.37 65.04,108.09 194.83,302.93 367.99,454.42 259.56,238.2 454.42,302.93 562.83,346.29l0 0c43.37,-43.37 86.74,-129.8 151.46,-194.83l21.67 -43.37c108.09,-151.46 281.26,-194.83 454.42,-129.8 86.74,43.37 562.83,259.9 562.83,259.9l43.37 21.67c65.04,43.37 151.46,65.04 194.83,151.46 86.43,194.83 21.67,476.09 -21.67,627.55l0 0.45z"/>
 </g>
</svg>
