<?xml version="1.0" encoding="UTF-8"?>
<!DOCTYPE svg PUBLIC "-//W3C//DTD SVG 1.1//EN" "http://www.w3.org/Graphics/SVG/1.1/DTD/svg11.dtd">
<!-- Creator: CorelDRAW 2018 (64 Bit) -->
<svg xmlns="http://www.w3.org/2000/svg" xml:space="preserve" width="121.95mm" height="33.5139mm" version="1.1" style="shape-rendering:geometricPrecision; text-rendering:geometricPrecision; image-rendering:optimizeQuality; fill-rule:evenodd; clip-rule:evenodd"
viewBox="0 0 5145.91 1414.18"
 xmlns:xlink="http://www.w3.org/1999/xlink">
 <defs>
  <style type="text/css">
   <![CDATA[
    .fil1 {fill:#252525}
    .fil3 {fill:#2D2B2C}
    .fil2 {fill:#AFABA8}
    .fil0 {fill:#FF6600}
   ]]>
  </style>
 </defs>
 <g id="Capa_x0020_1">
  <metadata id="CorelCorpID_0Corel-Layer"/>
  <polygon class="fil0" points="826.63,863.09 1560.06,1414.18 89.15,1414.18 "/>
  <polygon class="fil1" points="875.26,0 875.26,769.9 1673.52,1365.56 "/>
  <polygon class="fil2" points="786.11,8.11 786.11,765.85 -0,1365.56 "/>
  <path class="fil3" d="M2072.28 1118.84l-119.15 -1.74 232.51 -523.61 117.21 0 242.11 524.55 -113.37 0 -178.7 -401.58 -107.6 213.29 132.58 0 48.04 103.75 -226.74 0 -26.89 85.34zm514.98 3.01l0 -528.66 122.98 0 0 417.22 107.6 0 92.23 115.29 -322.8 -3.84zm342.04 -526.49l-1.92 381.71c0,87.74 137.18,161.4 226.72,161.4 100.55,0 232.49,-72.38 232.49,-157.55l0 -385.56 -113.37 0 0 338.17c0,72.7 -53.32,99.91 -115.28,99.91 -58.24,-1.47 -117.21,-40 -117.21,-97.99l0 -342.02 -111.44 1.92zm502.61 531.7l0 -532.24 136.42 0 103.76 169.09 -63.4 84.55 -59.56 -73.02 0 349.71 -117.21 1.92zm213.28 -207.51l207.52 -320.89 132.57 0 0 526.48 -113.36 0 0 -368.92 -160.86 278.62 -65.87 -115.29zm809 203.65l0 -527.97 122.98 0 0 416.53 107.6 0 92.23 115.29 -322.8 -3.84zm368.92 3.84l0 -533.53 122.98 0 0 422.09 107.6 0 92.23 115.29 -322.8 -3.84zm-787.74 -530.13l0 530.12 390.05 0 0 -97.99 -273.8 0 0 -136.42 162.36 0 -50.92 -69.17 -113.37 0 0 -137.38 254.59 0 0 -90.14 -368.92 1z"/>
 </g>
</svg>
